<?xml version="1.0" standalone="no"?><!DOCTYPE svg PUBLIC "-//W3C//DTD SVG 1.1//EN" "http://www.w3.org/Graphics/SVG/1.1/DTD/svg11.dtd"><svg t="1515568735007" class="icon" style="" viewBox="0 0 1024 1024" version="1.1" xmlns="http://www.w3.org/2000/svg" p-id="13623" xmlns:xlink="http://www.w3.org/1999/xlink" width="200" height="200"><defs><style type="text/css"></style></defs><path d="M418.6 356.8zM736.3 892.2H100.9C46.3 892.2 2 847.8 2 793.3V98.9C2 44.4 46.3 0 100.9 0h635.4c54.5 0 98.9 44.4 98.9 98.9v305c0 18.8-15.2 34-34 34s-34-15.2-34-34v-305c0-17-13.9-30.9-30.9-30.9H100.9C83.8 68 70 81.8 70 98.9v694.4c0 17 13.9 30.9 30.9 30.9h635.4c17 0 30.9-13.9 30.9-30.9v-40.7c0-18.8 15.2-34 34-34s34 15.2 34 34v40.7c0 54.5-44.4 98.9-98.9 98.9z" fill="#FF9F29" p-id="13624"></path><path d="M659.2 310.8H178c-18.8 0-34-15.2-34-34s15.2-34 34-34h481.2c18.8 0 34 15.2 34 34s-15.2 34-34 34zM448.2 529.7H178c-18.8 0-34-15.2-34-34s15.2-34 34-34h270.2c18.8 0 34 15.2 34 34s-15.2 34-34 34zM742.2 677.8c-8.6 0-17.1-3.2-23.7-9.7l-142-138.6c-13.4-13.1-13.7-34.6-0.6-48.1 13.1-13.4 34.7-13.7 48.1-0.6l117.9 115.1 223.3-225.4c13.2-13.3 34.7-13.4 48.1-0.2 13.3 13.2 13.4 34.7 0.2 48.1L766.4 667.7c-6.7 6.8-15.4 10.1-24.2 10.1z" fill="#FF9F29" p-id="13625"></path></svg>