<?xml version="1.0" standalone="no"?><!DOCTYPE svg PUBLIC "-//W3C//DTD SVG 1.1//EN" "http://www.w3.org/Graphics/SVG/1.1/DTD/svg11.dtd"><svg t="1515568599968" class="icon" style="" viewBox="0 0 1024 1024" version="1.1" xmlns="http://www.w3.org/2000/svg" p-id="12944" xmlns:xlink="http://www.w3.org/1999/xlink" width="200" height="200"><defs><style type="text/css"></style></defs><path d="M509.44 263.68c-162.56 0-289.28 133.12-289.28 289.28v281.6h578.56v-281.6c0-162.56-133.12-289.28-289.28-289.28zM503.04 206.08c-23.04 0-46.08-23.04-46.08-46.08V55.04c0-23.04 23.04-46.08 46.08-46.08s46.08 23.04 46.08 46.08v103.68c0 24.32-16.64 47.36-46.08 47.36zM693.76 268.8c-17.92-17.92-17.92-46.08 0-64l69.12-75.52c17.92-17.92 46.08-17.92 64 0s17.92 46.08 0 64l-64 75.52c-16.64 17.92-46.08 17.92-69.12 0zM312.32 268.8c17.92-17.92 17.92-46.08 0-64L243.2 129.28c-17.92-17.92-46.08-17.92-64 0s-17.92 46.08 0 64l69.12 75.52c17.92 17.92 46.08 17.92 64 0zM225.28 431.36c6.4-23.04-11.52-52.48-34.56-57.6l-103.68-23.04c-23.04-6.4-52.48 11.52-57.6 34.56 0 23.04 11.52 46.08 34.56 52.48l103.68 29.44c23.04 5.12 52.48-12.8 57.6-35.84z m560.64 0c-6.4-23.04 11.52-52.48 34.56-57.6l103.68-23.04c23.04-6.4 52.48 11.52 57.6 34.56 6.4 23.04-11.52 52.48-34.56 57.6l-103.68 23.04c-23.04 6.4-51.2-11.52-57.6-34.56zM821.76 1008.64H198.4c-32 0-58.88-26.88-58.88-58.88 0-32 26.88-58.88 58.88-58.88h623.36c32 0 58.88 26.88 58.88 58.88 0 32-25.6 58.88-58.88 58.88z" fill="#FF6600" p-id="12945"></path></svg>